<svg width="220" height="108" viewBox="0 0 220 108" fill="none" xmlns="http://www.w3.org/2000/svg">
<path fill-rule="evenodd" clip-rule="evenodd" d="M23.6065 35.6088C23.6065 35.6088 20.2475 21.1528 14.2672 25.2357C8.28694 29.3185 21.4765 36.932 21.4765 36.932C21.4765 36.932 1.59634 30.1172 12.8217 22.4837C24.1264 17.2248 23.6065 35.6088 23.6065 35.6088ZM28.0639 35.7632C28.0639 35.7632 35.1507 22.7234 39.828 28.2511C44.5053 33.7789 29.7647 37.6058 29.7647 37.6058C29.7647 37.6058 50.7417 36.3302 41.9541 25.9834C32.4577 17.9044 28.0639 35.7632 28.0639 35.7632ZM19.5597 40.814H31.4656V76.8151H19.5597V40.814ZM46.4896 54.9877H32.5994V76.8151H46.4896V54.9877ZM2.55127 54.9877H18.4258V76.8151H2.55127V54.9877ZM18.4258 41.381H0V54.1373H18.4258V41.381ZM32.5994 41.381H51.0252V54.1373H32.5994V41.381ZM28.6308 40.1571C28.6308 38.3567 27.1713 36.8971 25.3709 36.8971C23.5704 36.8971 22.1109 38.3567 22.1109 40.1571C22.1109 40.2046 22.1119 40.2518 22.1139 40.2988H28.6278C28.6298 40.2518 28.6308 40.2046 28.6308 40.1571Z" fill="white"/>
<path d="M61.6006 17.464V6.748H73.9886V17.464H61.6006ZM62.0566 62V24.684H73.5326V62H62.0566ZM83.7605 62V54.628L101.697 33.272H83.7605V24.684H114.085V32.056L96.1485 53.488H114.921V62H83.7605ZM122.556 62V54.628L140.492 33.272H122.556V24.684H152.88V32.056L134.944 53.488H153.716V62H122.556ZM161.808 17.464V6.748H174.196V17.464H161.808ZM162.264 62V24.684H173.74V62H162.264Z" fill="white"/>
<path d="M66.369 87.143C65.381 87.143 64.536 86.948 63.834 86.558C63.132 86.168 62.5903 85.622 62.209 84.92C61.8363 84.2093 61.65 83.373 61.65 82.411C61.65 81.4577 61.8363 80.63 62.209 79.928C62.5903 79.2173 63.132 78.667 63.834 78.277C64.536 77.887 65.381 77.692 66.369 77.692C66.9757 77.692 67.5563 77.7873 68.111 77.978C68.6657 78.1687 69.1207 78.4287 69.476 78.758L68.852 80.357C68.462 80.0537 68.0677 79.8327 67.669 79.694C67.279 79.5467 66.8673 79.473 66.434 79.473C65.5587 79.473 64.8957 79.7287 64.445 80.24C64.003 80.7427 63.782 81.4663 63.782 82.411C63.782 83.3557 64.003 84.0837 64.445 84.595C64.8957 85.1063 65.5587 85.362 66.434 85.362C66.8673 85.362 67.279 85.2927 67.669 85.154C68.0677 85.0067 68.462 84.7813 68.852 84.478L69.476 86.077C69.1207 86.3977 68.6657 86.6577 68.111 86.857C67.5563 87.0477 66.9757 87.143 66.369 87.143ZM71.057 87V77.835H77.336V79.408H72.981V81.553H77.05V83.139H72.981V85.427H77.336V87H71.057ZM79.1881 87V77.835H83.3741C84.3968 77.835 85.1855 78.095 85.7401 78.615C86.2948 79.1263 86.5721 79.8413 86.5721 80.76C86.5721 81.6787 86.2948 82.398 85.7401 82.918C85.1855 83.438 84.3968 83.698 83.3741 83.698H81.2031V87H79.1881ZM81.2031 82.138H83.0361C84.1021 82.138 84.6351 81.6787 84.6351 80.76C84.6351 79.8587 84.1021 79.408 83.0361 79.408H81.2031V82.138ZM88.0809 87V77.835H92.2799C93.2593 77.835 94.0133 78.0473 94.5419 78.472C95.0793 78.8967 95.3479 79.4773 95.3479 80.214C95.3479 80.6993 95.2266 81.1197 94.9839 81.475C94.7413 81.8217 94.4033 82.0817 93.9699 82.255C94.4899 82.4023 94.8886 82.6623 95.1659 83.035C95.4519 83.4077 95.5949 83.867 95.5949 84.413C95.5949 85.2277 95.3089 85.8647 94.7369 86.324C94.1736 86.7747 93.4023 87 92.4229 87H88.0809ZM90.0049 81.605H91.9289C92.9169 81.605 93.4109 81.2237 93.4109 80.461C93.4109 79.707 92.9169 79.33 91.9289 79.33H90.0049V81.605ZM90.0049 85.505H92.1499C92.6699 85.505 93.0513 85.4053 93.2939 85.206C93.5366 85.0067 93.6579 84.7033 93.6579 84.296C93.6579 83.8973 93.5366 83.5983 93.2939 83.399C93.0513 83.1997 92.6699 83.1 92.1499 83.1H90.0049V85.505ZM97.38 87V77.835H99.252V83.724L103.828 77.835H105.323V87H103.451V81.085L98.862 87H97.38ZM111.874 87.143C110.886 87.143 110.041 86.948 109.339 86.558C108.637 86.168 108.095 85.622 107.714 84.92C107.341 84.2093 107.155 83.373 107.155 82.411C107.155 81.4577 107.341 80.63 107.714 79.928C108.095 79.2173 108.637 78.667 109.339 78.277C110.041 77.887 110.886 77.692 111.874 77.692C112.481 77.692 113.061 77.7873 113.616 77.978C114.171 78.1687 114.626 78.4287 114.981 78.758L114.357 80.357C113.967 80.0537 113.573 79.8327 113.174 79.694C112.784 79.5467 112.372 79.473 111.939 79.473C111.064 79.473 110.401 79.7287 109.95 80.24C109.508 80.7427 109.287 81.4663 109.287 82.411C109.287 83.3557 109.508 84.0837 109.95 84.595C110.401 85.1063 111.064 85.362 111.939 85.362C112.372 85.362 112.784 85.2927 113.174 85.154C113.573 85.0067 113.967 84.7813 114.357 84.478L114.981 86.077C114.626 86.3977 114.171 86.6577 113.616 86.857C113.061 87.0477 112.481 87.143 111.874 87.143ZM121.74 87L123.144 84.218L119.244 77.835H121.376L124.106 82.372L126.394 77.835H128.474L123.82 87H121.74ZM129.409 87V77.835H131.424V81.514H135.688V77.835H137.703V87H135.688V83.191H131.424V87H129.409ZM139.813 87V77.835H141.685V83.724L146.261 77.835H147.756V87H145.884V81.085L141.295 87H139.813ZM149.861 87V77.835H151.876V81.618H152.981L155.308 77.835H157.518L154.827 81.995C155.46 82.3157 155.975 82.8833 156.374 83.698L157.973 87H155.789L154.593 84.4C154.402 83.9927 154.173 83.7067 153.904 83.542C153.644 83.3687 153.31 83.282 152.903 83.282H151.876V87H149.861ZM157.942 87L162.154 77.835H163.779L167.991 87H165.963L165.105 85.011H160.828L159.983 87H157.942ZM162.947 79.98L161.504 83.438H164.442L162.973 79.98H162.947ZM169.29 87.234L168.276 85.765C168.744 85.4963 169.13 85.1627 169.433 84.764C169.745 84.3653 169.975 83.8367 170.122 83.178C170.269 82.5193 170.343 81.6743 170.343 80.643V77.835H177.064V87H175.036V79.499H172.202V81.163C172.202 82.827 171.942 84.14 171.422 85.102C170.911 86.064 170.2 86.7747 169.29 87.234ZM179.155 87V77.835H181.17V81.527H183.497C184.476 81.527 185.247 81.761 185.811 82.229C186.383 82.697 186.669 83.373 186.669 84.257C186.669 85.141 186.383 85.8213 185.811 86.298C185.247 86.766 184.476 87 183.497 87H179.155ZM181.17 85.44H183.224C183.744 85.44 184.125 85.3447 184.368 85.154C184.61 84.9633 184.732 84.6643 184.732 84.257C184.732 83.867 184.61 83.5767 184.368 83.386C184.125 83.1867 183.744 83.087 183.224 83.087H181.17V85.44ZM188.263 87V77.835H190.278V81.514H194.542V77.835H196.557V87H194.542V83.191H190.278V87H188.263ZM198.667 87V77.835H200.682V81.527H202.619C203.598 81.527 204.369 81.761 204.933 82.229C205.505 82.697 205.791 83.373 205.791 84.257C205.791 85.141 205.505 85.8213 204.933 86.298C204.369 86.766 203.598 87 202.619 87H198.667ZM206.87 87V77.835H208.898V87H206.87ZM200.682 85.44H202.346C202.866 85.44 203.247 85.3447 203.49 85.154C203.732 84.9633 203.854 84.6643 203.854 84.257C203.854 83.867 203.732 83.5767 203.49 83.386C203.247 83.1867 202.866 83.087 202.346 83.087H200.682V85.44ZM209.869 87L213.366 82.359L209.973 77.835H212.313L214.523 80.89L216.72 77.835H219.073L215.667 82.359L219.164 87H216.811L214.51 83.841L212.235 87H209.869ZM61.923 105V95.835H70.126V105H68.111V97.499H63.938V105H61.923ZM72.2377 105V95.835H76.4237C77.4464 95.835 78.235 96.095 78.7897 96.615C79.3444 97.1263 79.6217 97.8413 79.6217 98.76C79.6217 99.6787 79.3444 100.398 78.7897 100.918C78.235 101.438 77.4464 101.698 76.4237 101.698H74.2527V105H72.2377ZM74.2527 100.138H76.0857C77.1517 100.138 77.6847 99.6787 77.6847 98.76C77.6847 97.8587 77.1517 97.408 76.0857 97.408H74.2527V100.138ZM81.1305 105V95.835H87.4095V97.408H83.0545V99.553H87.1235V101.139H83.0545V103.427H87.4095V105H81.1305ZM88.4946 107.21V103.414H89.4176C90.1889 102.452 90.5746 100.732 90.5746 98.253V95.835H97.2956V103.414H98.5956V107.21H96.8276V105H90.2756V107.21H88.4946ZM91.4456 103.414H95.2676V97.408H92.4336V98.448C92.4336 99.6093 92.3513 100.597 92.1866 101.412C92.0219 102.218 91.7749 102.885 91.4456 103.414ZM100.306 105.234L99.2917 103.765C99.7597 103.496 100.145 103.163 100.449 102.764C100.761 102.365 100.99 101.837 101.138 101.178C101.285 100.519 101.359 99.6743 101.359 98.643V95.835H108.08V105H106.052V97.499H103.218V99.163C103.218 100.827 102.958 102.14 102.438 103.102C101.926 104.064 101.216 104.775 100.306 105.234ZM114.421 105.143C113.52 105.143 112.727 104.948 112.042 104.558C111.366 104.159 110.838 103.609 110.456 102.907C110.084 102.196 109.897 101.364 109.897 100.411C109.897 99.4577 110.084 98.63 110.456 97.928C110.838 97.2173 111.366 96.667 112.042 96.277C112.718 95.887 113.511 95.692 114.421 95.692C115.331 95.692 116.124 95.887 116.8 96.277C117.485 96.667 118.014 97.2173 118.386 97.928C118.768 98.63 118.958 99.4533 118.958 100.398C118.958 101.351 118.768 102.183 118.386 102.894C118.014 103.605 117.485 104.159 116.8 104.558C116.124 104.948 115.331 105.143 114.421 105.143ZM114.421 103.427C115.184 103.427 115.778 103.163 116.202 102.634C116.636 102.097 116.852 101.356 116.852 100.411C116.852 99.4577 116.64 98.721 116.215 98.201C115.791 97.6723 115.193 97.408 114.421 97.408C113.667 97.408 113.074 97.6723 112.64 98.201C112.216 98.721 112.003 99.4577 112.003 100.411C112.003 101.356 112.216 102.097 112.64 102.634C113.074 103.163 113.667 103.427 114.421 103.427ZM119.854 105L121.466 101.698C121.865 100.883 122.376 100.316 123 99.995L120.322 95.835H122.532L124.859 99.618H125.665V95.835H127.589V99.618H128.395L130.722 95.835H132.932L130.241 99.995C130.874 100.316 131.385 100.883 131.775 101.698L133.387 105H131.216L130.007 102.4C129.816 101.993 129.587 101.707 129.318 101.542C129.058 101.369 128.724 101.282 128.317 101.282H127.589V105H125.665V101.282H124.937C124.521 101.282 124.179 101.369 123.91 101.542C123.65 101.715 123.425 102.001 123.234 102.4L122.038 105H119.854ZM134.57 105V95.835H140.849V97.408H136.494V99.553H140.563V101.139H136.494V103.427H140.849V105H134.57ZM142.701 105V95.835H144.716V99.514H148.98V95.835H150.995V105H148.98V101.191H144.716V105H142.701ZM153.105 105V95.835H154.977V101.724L159.553 95.835H161.048V105H159.176V99.085L154.587 105H153.105ZM163.153 105V95.835H165.025V101.724L169.601 95.835H171.096V105H169.224V99.085L164.635 105H163.153ZM167.118 95.12C166.347 95.12 165.74 94.9423 165.298 94.587C164.856 94.2317 164.579 93.781 164.466 93.235L165.428 92.923C165.593 93.3303 165.805 93.625 166.065 93.807C166.334 93.989 166.689 94.08 167.131 94.08C167.573 94.08 167.928 93.9847 168.197 93.794C168.466 93.6033 168.678 93.3173 168.834 92.936L169.757 93.235C169.592 93.8243 169.28 94.288 168.821 94.626C168.362 94.9553 167.794 95.12 167.118 95.12Z" fill="white"/>
</svg>
